<svg width="200" height="40" viewBox="0 0 187 40" fill="none" xmlns="http://www.w3.org/2000/svg">
<path d="M20.0269 40H23.9984V25.0847L45.4616 0L20.0269 25.0847V40Z" fill="white"/>
<path d="M25.4346 40H29.3216V25.0847L50.8693 0L25.4346 25.0847V40Z" fill="white"/>
<path d="M30.4204 40H34.3919V25.0847L55.8551 0L30.4204 25.0847V40Z" fill="white"/>
<path d="M35.8281 40H39.7152V25.0847L61.1783 0L35.8281 25.0847V40Z" fill="white"/>
<path d="M0 3.98315H20.0267L29.3217 14.0679L19.2662 23.9832L0 3.98315Z" fill="white"/>
<path d="M112.471 14.1526H108.583V23.8136H112.471V14.1526Z" fill="white"/>
<path d="M115.428 23.8136H119.061V15.8475L121.766 23.8136H124.892L127.427 15.8475V23.8136H131.483V14.1526H125.061L123.54 19.2373L121.766 14.1526H115.428V23.8136Z" fill="white"/>
<path d="M52.813 14.1526H57.1225L59.235 17.9661L61.0096 14.1526H65.3191L61.1786 20.8475V23.8136H56.869V20.8475L52.813 14.1526Z" fill="white"/>
<path d="M178.635 17.2035H174.832V14.0679H186.916V17.2035H183.367V23.8136H178.635V17.2035Z" fill="white"/>
<path d="M71.3186 14.1526H67.0091V20.5085C67.0091 20.5085 66.9246 21.4408 68.0231 22.4577C69.1216 23.5594 70.3891 23.8136 70.3891 23.8136H74.1916C74.1916 23.8136 75.9661 23.8984 77.1492 22.7967C78.1632 21.8645 78.2477 20.4238 78.2477 20.4238V14.0679H74.3606V19.8306C74.3606 19.8306 74.5296 21.6102 72.9241 21.6102C71.4031 21.6102 71.4031 19.8306 71.4031 19.8306V14.1526H71.3186Z" fill="white"/>
<path d="M89.6552 16.1865C90.4157 16.2712 91.7677 16.8644 91.7677 16.8644V14.1526C91.7677 14.1526 88.6412 13.4746 87.4582 13.5593C85.7682 13.7288 80.2756 14.1526 80.2756 18.7288C80.2756 23.7288 85.7682 23.6441 87.3737 23.7288C89.0637 23.8136 91.7677 23.0509 91.7677 23.0509V18.7288H88.1342V21.4407H86.2752C86.2752 21.4407 84.5852 21.1017 84.5852 18.9831C84.5852 16.7797 86.5287 16.5254 86.5287 16.5254C86.5287 16.5254 88.8947 16.1017 89.6552 16.1865Z" fill="white"/>
<path d="M100.133 13.644C95.7394 13.644 93.9648 16.4407 93.9648 18.8983C93.9648 21.3559 95.4859 23.8135 100.133 23.8135C105.795 23.8135 106.64 20.8474 106.64 18.8135C106.724 16.7796 105.034 13.644 100.133 13.644ZM101.908 20C101.908 20.9322 101.147 21.6949 100.218 21.6949C99.2884 21.6949 98.5279 20.9322 98.5279 20V17.5423C98.5279 16.6101 99.2884 15.8474 100.218 15.8474C101.147 15.8474 101.908 16.6101 101.908 17.5423V20Z" fill="white"/>
<path d="M153.707 13.644C149.313 13.644 147.538 16.4407 147.538 18.8983C147.538 21.3559 149.059 23.8135 153.707 23.8135C159.368 23.8135 160.213 20.8474 160.213 18.8135C160.213 16.7796 158.608 13.644 153.707 13.644ZM155.397 20C155.397 20.9322 154.636 21.6949 153.707 21.6949C152.777 21.6949 152.017 20.9322 152.017 20V17.5423C152.017 16.6101 152.777 15.8474 153.707 15.8474C154.636 15.8474 155.397 16.6101 155.397 17.5423V20Z" fill="white"/>
<path d="M133.849 23.7288V14.0678H141.539C141.539 14.0678 143.144 13.8983 144.243 14.4916C145.51 15.1695 145.51 16.8644 145.51 16.8644V17.8814C145.51 17.8814 145.51 19.5763 144.074 20.2543C142.806 20.8475 141.454 20.678 141.454 20.678H138.074V23.7288H133.849ZM138.159 16.1017V18.8136H140.187C140.187 18.8136 141.454 18.7288 141.454 17.2882C141.454 16.017 140.187 16.1017 140.187 16.1017H138.159Z" fill="white"/>
<path d="M166.213 16.1017V18.3051H168.241C168.241 18.3051 169.508 18.2203 169.508 17.0339C169.508 16.0169 168.241 16.1017 168.241 16.1017H166.213ZM169.086 14.0678C169.086 14.0678 173.311 13.8983 173.564 16.1864C173.818 18.8135 170.86 19.322 170.86 19.322C170.86 19.322 172.466 19.4915 173.142 20.9322C173.48 21.6949 173.564 22.9661 173.649 23.2203C173.649 23.4745 173.818 23.8983 173.818 23.8983H169.339C169.339 23.8983 169.086 22.2881 168.748 21.3559C168.41 20.4237 167.818 20.5084 167.818 20.5084H166.297V23.8135H161.903V14.0678H169.086Z" fill="white"/>
<path d="M115.597 31.4407H114.076V33.5593H115.681C115.681 33.5593 116.611 33.4746 116.611 32.3729C116.611 31.356 115.597 31.4407 115.597 31.4407Z" fill="white"/>
<path d="M70.389 31.8643H69.2905V35.5931H70.6425C70.6425 35.5931 71.065 35.3388 71.2341 35.1693C71.4876 34.9151 71.4875 34.5761 71.4875 34.5761V32.8812C71.4875 32.8812 71.4875 32.3727 71.1495 32.0338C70.896 31.8643 70.389 31.8643 70.389 31.8643Z" fill="white"/>
<path d="M52.813 26.5254V39.8305H187V26.5254H52.813ZM64.8121 36.0169C64.3051 37.0339 63.2066 37.2034 62.1926 37.4576C61.1786 37.7118 60.5871 37.7118 59.911 37.6271C59.235 37.5423 56.869 37.2034 56.869 37.2034V35.2542C56.869 35.2542 57.2915 35.4237 57.9675 35.5084C58.6435 35.5932 59.6575 35.7627 60.08 35.6779C60.5025 35.5932 61.6856 35.5084 61.5166 35.1695C61.3476 34.8305 60.8406 34.7457 60.3335 34.7457C59.8265 34.661 58.221 34.322 57.883 34.1525C57.545 33.8983 56.7845 33.7288 56.7 32.3729C56.6155 31.0169 57.6295 30.4237 58.3055 30.0847C59.066 29.8305 61.0096 29.5762 61.7701 29.661C62.5306 29.8305 64.3896 29.9152 64.3896 29.9152V31.9491C64.3896 31.9491 63.4601 31.6101 63.1221 31.6101C62.6996 31.6101 62.1081 31.4406 61.6011 31.4406C61.0941 31.5254 60.08 31.6101 60.2491 31.9491C60.4181 32.3729 61.0941 32.4576 61.8546 32.5423C62.6996 32.7118 63.6291 32.8813 64.3896 33.5593C64.9811 34.1525 65.3191 35 64.8121 36.0169ZM71.4031 37.6271H65.7416V30H71.1496C71.1496 30 75.2902 29.8305 75.2902 33.644C75.2902 37.7966 71.4031 37.6271 71.4031 37.6271ZM85.0922 32.7966C85.0922 32.7966 85.0922 34.1525 83.9937 34.661C83.1487 35 81.9657 35 81.9657 35H79.3462V37.5423H75.9662V29.9152H81.9657C81.9657 29.9152 83.2332 29.8305 84.0782 30.2542C85.0922 30.7627 85.0922 32.1186 85.0922 32.1186V32.7966ZM91.5988 37.5423C91.5988 37.5423 91.4298 36.2712 91.1763 35.5932C90.9228 34.8305 90.4158 34.9152 90.4158 34.9152H89.2328V37.5423H85.7683V29.9152H91.4298C91.4298 29.9152 94.7253 29.7457 94.8943 31.6101C95.0633 33.7288 92.7818 34.0678 92.7818 34.0678C92.7818 34.0678 94.0493 34.2373 94.5563 35.339C94.8098 35.9322 94.8943 36.9491 94.8943 37.1186C94.8943 37.2881 95.0633 37.6271 95.0633 37.6271H91.5988V37.5423ZM105.541 34.8305C105.541 34.8305 105.541 35.9322 104.696 36.6949C103.767 37.5423 102.415 37.4576 102.415 37.4576H101.401V35.7627C102.668 35.7627 102.584 34.4067 102.584 34.4067V29.9152H105.626V34.8305H105.541ZM108.499 37.5423H106.724V36.0169H108.499V37.5423ZM118.724 34.661C117.879 35 116.696 35 116.696 35H114.076V37.5423H110.696V29.9152H116.696C116.696 29.9152 117.963 29.8305 118.808 30.2542C119.822 30.7627 119.822 32.1186 119.822 32.1186V32.8813C119.822 32.7966 119.822 34.1525 118.724 34.661ZM121.259 37.5423H119.484V36.0169H121.259V37.5423Z" fill="white"/>
<path d="M90.6692 31.4405H89.1482V33.1355H90.7537C90.7537 33.1355 91.6832 33.0507 91.6832 32.1185C91.6832 31.3558 90.6692 31.4405 90.6692 31.4405Z" fill="white"/>
<path d="M80.8672 31.4407H79.3462V33.5593H80.9517C80.9517 33.5593 81.8812 33.4746 81.8812 32.3729C81.8812 31.356 80.8672 31.4407 80.8672 31.4407Z" fill="white"/>
</svg>
