<svg width="200" height="200" version="1.1" viewBox="0 0 135.47 135.47" xmlns="http://www.w3.org/2000/svg">
 <defs>
  <filter id="a" x="-.0010066" y="-.0061925" width="1.002" height="1.0124" color-interpolation-filters="sRGB">
   <feGaussianBlur stdDeviation="0.053669642"/>
  </filter>
  <filter id="b" x="-.00095084" y="-.00095084" width="1.0019" height="1.0019" color-interpolation-filters="sRGB">
   <feGaussianBlur stdDeviation="0.053669642"/>
  </filter>
 </defs> 
 <rect transform="matrix(1 0 0 1 -4.0049e-6 -4.0049e-6)" x="3.5604e-6" y="3.5604e-6" width="135.47" height="135.47" fill="none" filter="url(#b)" stop-color="#000000"/>
 <g transform="translate(0 15.584)" fill-rule="evenodd">
  <path transform="matrix(.67448 0 0 -.67448 -134.19 356.1)" d="m299.84 516.37c-54.359 0-98.425-18.944-98.425-42.314 0-23.369 44.066-42.313 98.425-42.313 54.358 0 98.425 18.944 98.425 42.313 0 23.37-44.066 42.314-98.425 42.314zm-90.541-48.536c0 11.947 17.739 22.152 42.375 28.873 24.637 6.7204 60.854 1.7427 60.854 1.7427l-80.81-52.518s-22.42 9.9556-22.42 21.903zm106.68-19.912c-41.39 0-55.187 7.9648-55.187 7.9648l107.42 46.048s21.434-10.454 21.434-21.406c0-13.192-25.623-32.607-73.665-32.607" fill-opacity=".29167" filter="url(#a)"/>
  <path d="m67.733 7.5013c-36.664 0-66.386 12.777-66.386 28.54 0 15.762 29.722 28.539 66.386 28.539s66.386-12.777 66.386-28.539c0-15.763-29.722-28.54-66.386-28.54zm-61.068 32.737c0-8.0581 11.965-14.941 28.581-19.474 16.617-4.5328 41.045-1.1754 41.045-1.1754l-54.505 35.422s-15.122-6.7149-15.122-14.773zm71.954 13.43c-27.917 0-37.223-5.3721-37.223-5.3721l72.453-31.059s14.457 7.051 14.457 14.438c0 8.8978-17.282 21.993-49.686 21.993" fill="#fff" stroke-width=".67448"/>
  <path d="m126.58 93.01c-1.065 0-2.0053-0.12462-2.821-0.37386-0.79305-0.24924-1.4162-0.75906-1.8693-1.5295-0.45317-0.79304-0.67975-1.9713-0.67975-3.5347v-10.842c0-1.2236 0.22658-2.1526 0.67975-2.787 0.45318-0.6571 1.0876-1.1103 1.9033-1.3595 0.81569-0.24926 1.756-0.37389 2.821-0.37389s1.994 0.13595 2.787 0.40786c0.8157 0.24925 1.4615 0.70243 1.9373 1.3595 0.47582 0.63442 0.71374 1.5521 0.71374 2.753v10.808c0 1.6088-0.23792 2.7983-0.71374 3.5687-0.47583 0.77041-1.1216 1.2802-1.9373 1.5295-0.81572 0.24924-1.7561 0.37386-2.821 0.37386zm0-1.9373c0.43053 0 0.81572-0.0566 1.1556-0.16984 0.33988-0.13607 0.60044-0.37398 0.7817-0.71374 0.18127-0.33989 0.27191-0.83839 0.27191-1.4955v-12.066c0-0.63443-0.0906-1.1216-0.27191-1.4614-0.18126-0.36256-0.44182-0.60047-0.7817-0.71376-0.33989-0.13591-0.72508-0.20387-1.1556-0.20387-0.43051 0-0.81571 0.068-1.1556 0.20387-0.31722 0.11324-0.56647 0.35116-0.74776 0.71376-0.18124 0.33987-0.27187 0.82702-0.27187 1.4614v12.066c0 0.6571 0.0906 1.1556 0.27187 1.4955 0.18129 0.33986 0.43054 0.57777 0.74776 0.71374 0.33987 0.11323 0.72507 0.16984 1.1556 0.16984zm-13.539 1.5294-3.4668-20.087h3.3308l2.4132 16.45h-0.034l2.4811-16.45h3.2288l-3.5007 20.087zm-14.627 0v-20.087h6.9335c1.2689 0 2.2432 0.28323 2.923 0.8497 0.70242 0.56646 1.0536 1.4048 1.0536 2.5151v3.1949c0 1.1103-0.30589 2.0166-0.91767 2.719-0.61178 0.67975-1.5181 1.0536-2.719 1.1216 0.7704 0.0679 1.3142 0.3171 1.6314 0.74772 0.33989 0.4305 0.64578 1.0989 0.91769 2.0053l1.9373 6.9335h-3.6027l-1.5974-6.6956c-0.15862-0.56647-0.33989-1.065-0.54381-1.4955-0.20393-0.43049-0.53247-0.64574-0.98564-0.64574h-1.6654v8.8368zm3.3648-11.114h2.1752c0.79305 0 1.3482-0.20393 1.6654-0.61179 0.33987-0.40785 0.5098-1.031 0.5098-1.8693v-2.5491c0-0.74774-0.1586-1.2916-0.47581-1.6314-0.29456-0.33988-0.75906-0.50982-1.3935-0.50982h-2.4811zm-13.364 11.114v-20.087h9.0408v2.3112h-5.642v6.0838h4.6564v2.5491h-4.6564v6.8996h5.642v2.2432zm-7.3557 0v-17.776h-3.1948v-2.3112h9.7205v2.3112h-3.2628v17.776zm-18.274 0 3.9086-20.087h4.5544l3.8406 20.087h-3.6027l-0.81571-4.0785h-3.6707l-0.74775 4.0785zm4.2825-5.744h3.5687l-1.7674-11.182zm-10.924 5.744-3.4668-20.087h3.3308l2.4131 16.45h-0.03397l2.4811-16.45h3.2289l-3.5007 20.087zm-14.459 0 3.9086-20.087h4.5544l3.8406 20.087h-3.6027l-0.81571-4.0785h-3.6707l-0.74773 4.0785zm4.2825-5.744h3.5687l-1.7674-11.182zm-8.7766 5.744v-17.776h-2.1146l-1.5092-2.3112h10.149v2.3112h-3.2628v17.776zm-7.8343 0.23789c-1.1103 0-2.0733-0.16992-2.889-0.50977-0.81571-0.3399-1.4388-0.94035-1.8693-1.8014-0.40786-0.86104-0.61178-2.0733-0.61178-3.6367v-1.1556h3.3308v1.4275c0 0.95166 0.09064 1.6881 0.27191 2.2092 0.18126 0.52114 0.4305 0.88367 0.74773 1.0876 0.31723 0.18128 0.67976 0.27191 1.0876 0.27191 0.65711 0 1.1783-0.21525 1.5635-0.64577 0.40786-0.45319 0.61178-1.2916 0.61178-2.5151 0-0.90635-0.13595-1.5861-0.40786-2.0393-0.2719-0.45319-0.70242-0.81573-1.2916-1.0876-0.56647-0.29456-1.3029-0.62311-2.2092-0.98565-0.74773-0.33986-1.3935-0.73639-1.9373-1.1896-0.54381-0.45316-0.95166-1.031-1.2236-1.7334-0.2719-0.70241-0.40786-1.5748-0.40786-2.6171 0-1.2689 0.15861-2.2998 0.47583-3.0929 0.33988-0.81573 0.90634-1.4048 1.6994-1.7674 0.79305-0.3852 1.858-0.5778 3.1949-0.5778 1.7221 0 3.0363 0.39652 3.9426 1.1896 0.90636 0.7704 1.3595 1.9033 1.3595 3.3988v2.3452h-3.1949v-1.3935c0-1.0423-0.16994-1.79-0.50983-2.2432-0.31721-0.47584-0.83836-0.71375-1.5634-0.71375-0.74773 0-1.2915 0.22658-1.6314 0.67976-0.31722 0.43052-0.47584 1.1216-0.47584 2.0733 0 0.81571 0.15861 1.4502 0.47584 1.9033 0.31723 0.43052 0.72508 0.7704 1.2236 1.0196 0.52115 0.24925 1.0536 0.47583 1.5974 0.67974 1.0196 0.38521 1.8467 0.78174 2.4811 1.1896 0.63444 0.40786 1.0989 0.95168 1.3935 1.6314 0.29455 0.67974 0.44183 1.6427 0.44183 2.889 0 1.4275-0.23791 2.5604-0.71374 3.3988-0.45318 0.8157-1.1103 1.4048-1.9713 1.7674-0.83837 0.36252-1.8354 0.54377-2.9909 0.54377zm-17.474-0.23789 3.9086-20.087h4.5544l3.8406 20.087h-3.6027l-0.81571-4.0785h-3.6707l-0.74773 4.0785zm4.2825-5.744h3.5687l-1.7674-11.182zm-12.072 5.744v-2.1072l5.0302-15.668h-4.6563v-2.3112h8.361v1.6994l-5.2341 16.076h4.4085l-0.45612 2.3112z" fill-opacity=".29167" filter="url(#a)" stop-color="#000000" stroke-width=".67448" style="-inkscape-stroke:none;font-variation-settings:normal"/>
  <path d="m126.58 92.706c-1.065 0-2.0053-0.12462-2.821-0.37386-0.79305-0.24924-1.4162-0.75906-1.8693-1.5295-0.45317-0.79304-0.67975-1.9713-0.67975-3.5347v-10.842c0-1.2236 0.22658-2.1526 0.67975-2.787 0.45318-0.6571 1.0876-1.1103 1.9033-1.3595 0.81569-0.24926 1.756-0.37388 2.821-0.37388s1.994 0.13595 2.787 0.40786c0.8157 0.24926 1.4615 0.70244 1.9373 1.3595 0.47582 0.63443 0.71374 1.5521 0.71374 2.753v10.808c0 1.6088-0.23792 2.7983-0.71374 3.5687-0.47583 0.7704-1.1216 1.2802-1.9373 1.5295-0.81572 0.24924-1.7561 0.37386-2.821 0.37386zm0-1.9373c0.43053 0 0.81572-0.05661 1.1556-0.16984 0.33988-0.13606 0.60044-0.37398 0.7817-0.71374 0.18127-0.33989 0.27191-0.83839 0.27191-1.4955v-12.066c0-0.63443-0.0906-1.1216-0.27191-1.4615-0.18126-0.36255-0.44182-0.60047-0.7817-0.71375-0.33989-0.13592-0.72508-0.20387-1.1556-0.20387-0.43051 0-0.81571 0.06796-1.1556 0.20387-0.31722 0.11324-0.56647 0.35115-0.74776 0.71375-0.18124 0.33988-0.27187 0.82703-0.27187 1.4615v12.066c0 0.6571 0.0906 1.1556 0.27187 1.4955 0.18129 0.33986 0.43054 0.57778 0.74776 0.71374 0.33987 0.11323 0.72507 0.16984 1.1556 0.16984zm-13.539 1.5294-3.4668-20.087h3.3308l2.4132 16.45h-0.034l2.4811-16.45h3.2288l-3.5007 20.087zm-14.627 0v-20.087h6.9335c1.2689 0 2.2432 0.28324 2.923 0.8497 0.70242 0.56645 1.0536 1.4048 1.0536 2.5151v3.1949c0 1.1103-0.30589 2.0166-0.91767 2.719-0.61178 0.67975-1.5181 1.0536-2.719 1.1216 0.7704 0.06787 1.3142 0.31711 1.6314 0.74772 0.33989 0.43051 0.64578 1.0989 0.91769 2.0053l1.9373 6.9335h-3.6027l-1.5974-6.6956c-0.15862-0.56647-0.33989-1.065-0.54381-1.4955-0.20393-0.43049-0.53247-0.64574-0.98564-0.64574h-1.6654v8.8368zm3.3648-11.114h2.1752c0.79305 0 1.3482-0.20393 1.6654-0.61179 0.33987-0.40784 0.5098-1.031 0.5098-1.8693v-2.5491c0-0.74774-0.1586-1.2915-0.47581-1.6314-0.29456-0.33988-0.75906-0.50981-1.3935-0.50981h-2.4811zm-13.364 11.114v-20.087h9.0408v2.3112h-5.642v6.0838h4.6564v2.5491h-4.6564v6.8996h5.642v2.2432zm-7.3557 0v-17.776h-3.1948v-2.3112h9.7205v2.3112h-3.2628v17.776zm-18.274 0 3.9086-20.087h4.5544l3.8406 20.087h-3.6027l-0.81571-4.0785h-3.6707l-0.74775 4.0785zm4.2825-5.744h3.5687l-1.7674-11.182zm-10.924 5.744-3.4668-20.087h3.3308l2.4131 16.45h-0.03397l2.4811-16.45h3.2289l-3.5007 20.087zm-14.459 0 3.9086-20.087h4.5544l3.8406 20.087h-3.6027l-0.81571-4.0785h-3.6707l-0.74773 4.0785zm4.2825-5.744h3.5687l-1.7674-11.182zm-8.7766 5.744v-17.776h-2.1146l-1.5092-2.3112h10.149v2.3112h-3.2628v17.776zm-7.8343 0.2379c-1.1103 0-2.0733-0.16992-2.889-0.50977-0.81571-0.3399-1.4388-0.94036-1.8693-1.8014-0.40786-0.86104-0.61178-2.0733-0.61178-3.6367v-1.1556h3.3308v1.4275c0 0.95166 0.09064 1.6881 0.27191 2.2092 0.18126 0.52114 0.4305 0.88367 0.74773 1.0876 0.31723 0.18127 0.67976 0.27191 1.0876 0.27191 0.65711 0 1.1783-0.21526 1.5635-0.64577 0.40786-0.45319 0.61178-1.2916 0.61178-2.5151 0-0.90636-0.13595-1.5861-0.40786-2.0393-0.2719-0.45318-0.70242-0.81572-1.2916-1.0876-0.56647-0.29456-1.3029-0.62311-2.2092-0.98565-0.74773-0.33986-1.3935-0.73638-1.9373-1.1896-0.54381-0.45316-0.95166-1.031-1.2236-1.7334-0.2719-0.7024-0.40786-1.5748-0.40786-2.6171 0-1.2689 0.15861-2.2998 0.47583-3.0929 0.33988-0.81572 0.90634-1.4048 1.6994-1.7674 0.79305-0.3852 1.858-0.5778 3.1949-0.5778 1.7221 0 3.0363 0.39652 3.9426 1.1896 0.90636 0.7704 1.3595 1.9033 1.3595 3.3988v2.3452h-3.1949v-1.3935c0-1.0423-0.16994-1.79-0.50983-2.2432-0.31721-0.47584-0.83836-0.71375-1.5634-0.71375-0.74773 0-1.2915 0.22659-1.6314 0.67976-0.31722 0.43052-0.47584 1.1216-0.47584 2.0733 0 0.81571 0.15861 1.4502 0.47584 1.9033 0.31723 0.43052 0.72508 0.7704 1.2236 1.0196 0.52115 0.24925 1.0536 0.47583 1.5974 0.67974 1.0196 0.38521 1.8467 0.78173 2.4811 1.1896 0.63444 0.40786 1.0989 0.95168 1.3935 1.6314 0.29455 0.67975 0.44183 1.6427 0.44183 2.889 0 1.4275-0.23791 2.5604-0.71374 3.3988-0.45318 0.8157-1.1103 1.4048-1.9713 1.7674-0.83837 0.36252-1.8354 0.54377-2.9909 0.54377zm-17.474-0.2379 3.9086-20.087h4.5544l3.8406 20.087h-3.6027l-0.81571-4.0785h-3.6707l-0.74773 4.0785zm4.2825-5.744h3.5687l-1.7674-11.182zm-12.072 5.744v-2.1072l5.0302-15.668h-4.6563v-2.3112h8.361v1.6994l-5.2341 16.076h4.4085l-0.45612 2.3112z" fill="#fff" stop-color="#000000" stroke-width=".47306"/>
 </g>
</svg>
