<svg id="Layer_1" data-name="Layer 1" xmlns="http://www.w3.org/2000/svg" viewBox="0 0 203.66 25.91"><defs><style>.cls-1{fill:#fff;}.cls-2,.cls-4{stroke:#000;}.cls-2,.cls-3,.cls-4,.cls-5{stroke-miterlimit:10;}.cls-2{stroke-width:0.03px;}.cls-3{fill:#c1272d;stroke:#c1272d;stroke-width:0.06px;}.cls-4{stroke-width:0.03px;}.cls-5{fill:#fbb03b;stroke:#fbb03b;stroke-width:0.04px;}</style></defs><title>ModelPro logo</title><path d="M231.87,408.81,238,426.18l6.12-17.37h6.48v23.94h-5v-6.54l.49-11.3-6.46,17.84h-3.39l-6.44-17.82.49,11.28v6.54h-4.93V408.81Z" transform="translate(-196.4 -407.17)"/><path d="M274.59,421.33a14.46,14.46,0,0,1-1.25,6.19,9.42,9.42,0,0,1-3.58,4.11,9.85,9.85,0,0,1-5.34,1.45,10,10,0,0,1-5.31-1.43,9.49,9.49,0,0,1-3.61-4.09,13.92,13.92,0,0,1-1.3-6.1v-1.19a14.37,14.37,0,0,1,1.27-6.22,9.52,9.52,0,0,1,3.6-4.13,10.61,10.61,0,0,1,10.64,0,9.52,9.52,0,0,1,3.6,4.13,14.32,14.32,0,0,1,1.28,6.21Zm-5-1.09a10,10,0,0,0-1.35-5.72,4.76,4.76,0,0,0-7.68,0,10,10,0,0,0-1.36,5.67v1.17a10.15,10.15,0,0,0,1.35,5.68,4.71,4.71,0,0,0,7.69.08,10.11,10.11,0,0,0,1.35-5.68Z" transform="translate(-196.4 -407.17)"/><path d="M278.17,432.75V408.81h7.36a11.16,11.16,0,0,1,5.65,1.43,9.84,9.84,0,0,1,3.89,4,12.51,12.51,0,0,1,1.4,6v1.1a12.46,12.46,0,0,1-1.38,5.94,9.74,9.74,0,0,1-3.87,4,11.17,11.17,0,0,1-5.64,1.45Zm4.93-19.94v16h2.38a5.37,5.37,0,0,0,4.43-1.89,8.52,8.52,0,0,0,1.56-5.41v-1.27a8.74,8.74,0,0,0-1.51-5.53,5.37,5.37,0,0,0-4.43-1.88Z" transform="translate(-196.4 -407.17)"/><path d="M314.45,422.38H305v6.41H316.1v4H300.05V408.81h16v4H305v5.7h9.47Z" transform="translate(-196.4 -407.17)"/><path d="M323.92,428.79h10.47v4H319V408.81h4.93Z" transform="translate(-196.4 -407.17)"/><path d="M342.12,424.32v8.43h-4.93V408.81h9.34a10.77,10.77,0,0,1,4.74,1,7.29,7.29,0,0,1,3.15,2.8,7.88,7.88,0,0,1,1.1,4.14,6.88,6.88,0,0,1-2.41,5.55,10,10,0,0,1-6.66,2Zm0-4h4.41a4.29,4.29,0,0,0,3-.92,3.33,3.33,0,0,0,1-2.63,3.94,3.94,0,0,0-1-2.84,3.83,3.83,0,0,0-2.86-1.12h-4.52Z" transform="translate(-196.4 -407.17)"/><path d="M367.77,424h-3.93v8.76h-4.93V408.81h8.89a10,10,0,0,1,6.54,1.9,6.51,6.51,0,0,1,2.31,5.34,7.41,7.41,0,0,1-1.06,4.08,7.28,7.28,0,0,1-3.22,2.61l5.18,9.78v.23h-5.29Zm-3.93-4h4a4.05,4.05,0,0,0,2.87-.94,3.38,3.38,0,0,0,1-2.61,3.62,3.62,0,0,0-1-2.66,4,4,0,0,0-2.95-1h-4Z" transform="translate(-196.4 -407.17)"/><path d="M400.06,421.33a14.46,14.46,0,0,1-1.25,6.19,9.42,9.42,0,0,1-3.58,4.11,9.84,9.84,0,0,1-5.33,1.45,10,10,0,0,1-5.31-1.43,9.45,9.45,0,0,1-3.62-4.09,13.92,13.92,0,0,1-1.3-6.1v-1.19a14.37,14.37,0,0,1,1.28-6.22,9.4,9.4,0,0,1,3.6-4.13,10.59,10.59,0,0,1,10.63,0,9.52,9.52,0,0,1,3.6,4.13,14.32,14.32,0,0,1,1.28,6.21Zm-5-1.09a10,10,0,0,0-1.35-5.72,4.76,4.76,0,0,0-7.68,0,10,10,0,0,0-1.36,5.67v1.17A10.15,10.15,0,0,0,386,427a4.71,4.71,0,0,0,7.69.08,10.11,10.11,0,0,0,1.35-5.68Z" transform="translate(-196.4 -407.17)"/><path class="cls-1" d="M231.1,407.5l6.15,17.36,6.12-17.36h6.47v23.94h-5v-6.55l.5-11.29-6.46,17.84h-3.39l-6.44-17.82.49,11.27v6.55h-4.93V407.5Z" transform="translate(-196.4 -407.17)"/><path class="cls-1" d="M273.81,420a14.36,14.36,0,0,1-1.25,6.2,9.34,9.34,0,0,1-3.57,4.11,10.57,10.57,0,0,1-10.65,0,9.55,9.55,0,0,1-3.61-4.09,14,14,0,0,1-1.3-6.11V419a14.34,14.34,0,0,1,1.27-6.22,9.52,9.52,0,0,1,3.6-4.13,10.55,10.55,0,0,1,10.64,0,9.52,9.52,0,0,1,3.6,4.13,14.31,14.31,0,0,1,1.27,6.2Zm-5-1.08a10,10,0,0,0-1.35-5.72,4.76,4.76,0,0,0-7.68,0,10,10,0,0,0-1.37,5.66V420a10.18,10.18,0,0,0,1.35,5.69,4.73,4.73,0,0,0,7.7.07,10.25,10.25,0,0,0,1.35-5.68Z" transform="translate(-196.4 -407.17)"/><path class="cls-1" d="M277.4,431.44V407.5h7.36a11.26,11.26,0,0,1,5.65,1.42A9.93,9.93,0,0,1,294.3,413a12.48,12.48,0,0,1,1.39,6V420a12.44,12.44,0,0,1-1.37,5.93,9.71,9.71,0,0,1-3.87,4,11.32,11.32,0,0,1-5.64,1.45Zm4.93-19.94v16h2.38a5.37,5.37,0,0,0,4.43-1.89,8.69,8.69,0,0,0,1.56-5.41v-1.27a8.66,8.66,0,0,0-1.52-5.53,5.31,5.31,0,0,0-4.42-1.88Z" transform="translate(-196.4 -407.17)"/><path class="cls-1" d="M313.68,421.06h-9.47v6.42h11.11v4h-16V407.5h16v4H304.21v5.7h9.47Z" transform="translate(-196.4 -407.17)"/><path class="cls-1" d="M323.15,427.48h10.47v4h-15.4V407.5h4.93Z" transform="translate(-196.4 -407.17)"/><path class="cls-1" d="M341.35,423v8.44h-4.93V407.5h9.34a10.8,10.8,0,0,1,4.74,1,7.28,7.28,0,0,1,3.15,2.8,7.86,7.86,0,0,1,1.1,4.14,6.85,6.85,0,0,1-2.41,5.54,10,10,0,0,1-6.67,2Zm0-4h4.41a4.36,4.36,0,0,0,3-.92,3.37,3.37,0,0,0,1-2.63,4,4,0,0,0-1-2.85,3.86,3.86,0,0,0-2.86-1.11h-4.52Z" transform="translate(-196.4 -407.17)"/><path class="cls-1" d="M367,422.68h-3.93v8.76h-4.94V407.5H367a10,10,0,0,1,6.54,1.89,6.5,6.5,0,0,1,2.3,5.34,7.34,7.34,0,0,1-1.06,4.09,7.19,7.19,0,0,1-3.21,2.61l5.18,9.78v.23h-5.3Zm-3.93-4h4a4,4,0,0,0,2.87-.95,3.36,3.36,0,0,0,1-2.6,3.6,3.6,0,0,0-1-2.66,4,4,0,0,0-3-1h-4Z" transform="translate(-196.4 -407.17)"/><path class="cls-1" d="M399.28,420a14.51,14.51,0,0,1-1.24,6.2,9.42,9.42,0,0,1-3.58,4.11,10.57,10.57,0,0,1-10.65,0,9.55,9.55,0,0,1-3.61-4.09,14,14,0,0,1-1.3-6.11V419a14.34,14.34,0,0,1,1.27-6.22,9.52,9.52,0,0,1,3.6-4.13,10.55,10.55,0,0,1,10.64,0,9.52,9.52,0,0,1,3.6,4.13,14.31,14.31,0,0,1,1.27,6.2Zm-5-1.08a10,10,0,0,0-1.35-5.72,4.76,4.76,0,0,0-7.68,0,10,10,0,0,0-1.36,5.66V420a10.27,10.27,0,0,0,1.34,5.69,4.73,4.73,0,0,0,7.7.07,10.09,10.09,0,0,0,1.35-5.68Z" transform="translate(-196.4 -407.17)"/><rect class="cls-2" x="0.01" y="1.08" width="6" height="23.75"/><rect class="cls-3" x="6.61" y="1.08" width="18.77" height="7.26"/><rect class="cls-4" x="6.61" y="9.1" width="4.92" height="15.72"/><rect class="cls-5" x="12.17" y="9.1" width="13.21" height="7.37"/><rect class="cls-1" x="12.17" y="17.46" width="13.21" height="7.37"/></svg>